<?xml version="1.0" encoding="iso-8859-1"?>
<!-- Generator: Adobe Illustrator 16.0.0, SVG Export Plug-In . SVG Version: 6.00 Build 0)  -->
<!DOCTYPE svg PUBLIC "-//W3C//DTD SVG 1.1//EN" "http://www.w3.org/Graphics/SVG/1.1/DTD/svg11.dtd">
<svg version="1.1" id="Layer_2" xmlns="http://www.w3.org/2000/svg" xmlns:xlink="http://www.w3.org/1999/xlink" x="0px" y="0px"
	 width="512px" height="512px" viewBox="0 0 512 512" style="enable-background:new 0 0 512 512;" xml:space="preserve">
<g>
	<path d="M491.091,264.074c-5.277-12.473-12.82-23.667-22.422-33.269c-9.605-9.602-20.797-17.147-33.27-22.421
		c-12.937-5.472-26.653-8.246-40.769-8.246c-2.265,0-4.517,0.07-6.756,0.211c-5.197-6.196-11.147-11.817-17.771-16.757
		c-18.193-13.567-39.823-20.738-62.557-20.738c-20.224,0-39.868,5.789-56.806,16.742c-4.902,3.171-9.512,6.728-13.783,10.628
		c-6.662-1.316-13.482-1.986-20.369-1.986c-14.118,0-27.836,2.774-40.771,8.246c-12.474,5.275-23.666,12.819-33.268,22.421
		c-9.604,9.603-17.147,20.796-22.423,33.269c-5.471,12.937-8.246,26.654-8.246,40.77c0,14.117,2.775,27.833,8.246,40.77
		c5.275,12.472,12.819,23.665,22.423,33.269c9.602,9.602,20.794,17.146,33.268,22.422c3.771,1.595,7.61,2.961,11.507,4.096
		c6.318,11.433,14.764,21.688,24.941,30.112c18.712,15.484,42.408,24.011,66.724,24.011c18.227,0,35.906-4.706,51.49-13.52
		c3.613,0.375,7.253,0.565,10.913,0.565c16.587,0,33.122-3.992,47.813-11.542c7.782-3.999,15.067-9.003,21.631-14.822
		c8.424-1.31,16.636-3.649,24.561-7c12.473-5.276,23.664-12.82,33.27-22.422c9.602-9.603,17.145-20.796,22.422-33.27
		c5.47-12.936,8.244-26.652,8.244-40.769C499.335,290.726,496.561,277.01,491.091,264.074z"/>
	<path d="M160.631,163.995c16.696-7.063,34.391-10.645,52.591-10.645c2.561,0,5.122,0.073,7.679,0.217
		c1.027-0.706,2.064-1.397,3.11-2.072c21.854-14.134,47.196-21.607,73.282-21.607c20.286,0,39.892,4.437,57.825,12.965
		c-3.658-5.619-7.882-10.866-12.686-15.669c-8.877-8.874-19.221-15.847-30.749-20.724c-11.957-5.057-24.635-7.621-37.682-7.621
		c-2.094,0-4.175,0.065-6.243,0.195c-4.805-5.728-10.304-10.922-16.427-15.488c-16.814-12.54-36.807-19.168-57.818-19.168
		c-18.692,0-36.85,5.351-52.504,15.475c-4.533,2.931-8.792,6.219-12.74,9.822c-6.158-1.216-12.461-1.835-18.827-1.835
		c-13.049,0-25.728,2.564-37.683,7.622c-11.529,4.876-21.874,11.848-30.749,20.723s-15.849,19.221-20.725,30.75
		c-5.056,11.957-7.621,24.635-7.621,37.682c0,13.048,2.565,25.726,7.621,37.682c4.876,11.529,11.85,21.875,20.725,30.75
		c8.875,8.875,19.22,15.847,30.749,20.724c2.291,0.969,4.609,1.836,6.951,2.622c1.229-13.976,4.607-27.583,10.107-40.586
		c6.804-16.088,16.53-30.524,28.91-42.903C130.108,180.526,144.541,170.8,160.631,163.995z"/>
</g>
</svg>
