<?xml version="1.0" encoding="iso-8859-1"?>
<!-- Generator: Adobe Illustrator 18.0.0, SVG Export Plug-In . SVG Version: 6.00 Build 0)  -->
<!DOCTYPE svg PUBLIC "-//W3C//DTD SVG 1.1//EN" "http://www.w3.org/Graphics/SVG/1.1/DTD/svg11.dtd">
<svg version="1.1" id="Capa_1" xmlns="http://www.w3.org/2000/svg" xmlns:xlink="http://www.w3.org/1999/xlink" x="0px" y="0px"
	 viewBox="0 0 95.436 95.86" style="enable-background:new 0 0 95.436 95.86;" xml:space="preserve">
<g>
	<path d="M62.577,23.67l7.969-7.97c0.938-0.94,0.984-2.53-0.094-3.61c-0.938-0.93-2.652-1.01-3.656,0l-7.875,7.97
		c-1.004,1.02-1.078,2.53,0,3.61C59.999,24.75,61.499,24.75,62.577,23.67z"/>
	<path d="M41.25,16.41c1.453,0,2.625-1.18,2.625-2.63V2.58c0-1.46-1.172-2.58-2.625-2.58s-2.578,1.12-2.578,2.58v11.2
		C38.671,15.23,39.796,16.41,41.25,16.41z"/>
	<path d="M20.062,23.67c1.085,1.07,2.615,1.11,3.656,0c0.976-1.04,0.938-2.67,0-3.61l-7.969-7.97c-0.938-0.93-2.578-0.93-3.656,0
		c-1.078,1.13-1.063,2.66,0,3.71L20.062,23.67z"/>
	<path d="M2.578,43.97l11.25-0.14c1.453-0.02,2.578-1.13,2.578-2.58c0-1.45-1.125-2.58-2.578-2.58H2.578
		C1.125,38.81,0,39.89,0,41.34C0,42.7,1.125,43.99,2.578,43.97z"/>
	<path d="M92.53,61.4c-1.922-3.51-4.5-6.32-7.781-8.43c-0.797-5.96-3.202-11-7.172-15.19c-4.655-4.91-10.969-7.64-17.672-7.64
		h-1.922c-1.828-2.72-4.265-4.88-7.219-6.47c-2.953-1.59-6.094-2.39-9.516-2.39c-5.531,0-10.277,1.96-14.203,5.86
		c-3.902,3.88-5.859,8.58-5.859,14.11c0,2.11,0.938,5.3,2.812,9.61c-2.672,2.2-4.594,5.06-5.672,8.53H17.25
		c-4.734,0-8.812,1.78-12.187,5.34C1.688,68.3,0,72.61,0,77.62c0,4.5,1.382,8.42,4.125,11.82c2.789,3.45,6.278,5.54,10.547,6.23
		c0.982,0.16,1.781,0.19,2.297,0.19h44.953h2.672h9.516c1.266,0,2.297-0.1,3.047-0.28c5.25-0.75,9.639-3.35,13.171-7.79
		c3.405-4.27,5.109-9.28,5.109-14.95C95.436,68.76,94.452,64.92,92.53,61.4z M30.797,30.8c2.895-2.88,6.375-4.32,10.453-4.32
		c4.359,0,8.062,1.6,11.062,4.78c-7.359,2.49-13.265,8.44-15.937,16.13c-0.984-0.14-1.781-0.19-2.297-0.19
		c-2.016,0-3.938,0.38-5.859,1.17c-1.172-2.11-1.734-4.45-1.734-7.12C26.484,37.17,27.926,33.64,30.797,30.8z M86.249,84.61
		c-2.672,3.33-6,5.29-10.031,5.9c-0.375,0.14-1.078,0.19-2.109,0.19h-9.516h-2.672H16.969c-0.375,0-1.078-0.09-1.406-0.09
		c-2.953-0.47-5.391-1.92-7.406-4.41c-2.016-2.48-3-5.34-3-8.58c0-3.61,1.159-6.71,3.516-9.23c2.378-2.54,5.25-3.8,8.578-3.8
		c2.016,0,3.891,0.47,5.672,1.46c-0.047-0.33-0.094-0.8-0.094-1.46c0-3.33,1.078-6.19,3.281-8.58s4.828-3.61,7.969-3.61
		c2.156,0,4.125,0.61,5.953,1.83c0.609-5.34,2.777-9.83,6.562-13.45c3.809-3.64,8.203-5.48,13.312-5.48
		c5.391,0,10.031,2.06,13.875,6.14c3.844,4.07,5.859,9,6,14.81c3.141,1.31,5.625,3.47,7.547,6.47s2.906,6.37,2.906,10.12
		C90.233,77.39,88.921,81.28,86.249,84.61z"/>
</g>
<g>
</g>
<g>
</g>
<g>
</g>
<g>
</g>
<g>
</g>
<g>
</g>
<g>
</g>
<g>
</g>
<g>
</g>
<g>
</g>
<g>
</g>
<g>
</g>
<g>
</g>
<g>
</g>
<g>
</g>
</svg>
