<?xml version="1.0" encoding="iso-8859-1"?>
<!-- Generator: Adobe Illustrator 18.0.0, SVG Export Plug-In . SVG Version: 6.00 Build 0)  -->
<!DOCTYPE svg PUBLIC "-//W3C//DTD SVG 1.1//EN" "http://www.w3.org/Graphics/SVG/1.1/DTD/svg11.dtd">
<svg version="1.1" id="Capa_1" xmlns="http://www.w3.org/2000/svg" xmlns:xlink="http://www.w3.org/1999/xlink" x="0px" y="0px"
	 viewBox="0 0 28 26" style="enable-background:new 0 0 28 26;" xml:space="preserve">
<g id="_x38__7_">
	<g>
		<path style="fill-rule:evenodd;clip-rule:evenodd;" d="M4,12h18c3.314,0,6-2.686,6-6c0-3.314-2.686-6-6-6v2
			c2.822,0.531,4,1.791,4,4c0,2.209-2.313,4-5.167,4H4c-0.552,0-1,0.448-1,1C3,11.552,3.448,12,4,12z M9,8h12c0.552,0,1-0.448,1-1
			c0-0.552-0.448-1-1-1H9C8.448,6,8,6.448,8,7C8,7.552,8.448,8,9,8z M14.002,18c-0.001,0-0.001,0-0.002,0H6c-0.552,0-1,0.448-1,1
			c0,0.552,0.448,1,1,1l8,0c1.105,0,2,0.895,2,2c0,1.105-0.895,2-2,2v2c2.209,0,4-1.791,4-4C18,19.792,16.21,18.001,14.002,18z
			 M22,14L1,14c-0.552,0-1,0.448-1,1c0,0.552,0.448,1,1,1l19.833,0C23.687,16,26,17.791,26,20c0,2.209-1.709,4-6,4c0,0,0,0.861,0,2
			h2c3.314,0,6-2.686,6-6C28,16.686,25.314,14,22,14z"/>
	</g>
</g>
<g>
</g>
<g>
</g>
<g>
</g>
<g>
</g>
<g>
</g>
<g>
</g>
<g>
</g>
<g>
</g>
<g>
</g>
<g>
</g>
<g>
</g>
<g>
</g>
<g>
</g>
<g>
</g>
<g>
</g>
</svg>
